{
  "title": "Dumb And Dumber To 2014 720p HDCAM FIRST ENG x264 Pimp4003",
  "uid": 11511873,
  "size": 1943902806,
  "categoryP": "video",
  "categoryS": "movies",
  "magnet": "?xt=urn:btih:c6c2f4514cc74436571144123add56e10c631c30&amp;dn=Dumb+And+Dumber+To+2014+720p+HDCAM+FIRST+ENG+x264+Pimp4003&amp;tr=udp%3A%2F%2Ftracker.openbittorrent.com%3A80&amp;tr=udp%3A%2F%2Fopen.demonii.com%3A1337&amp;tr=udp%3A%2F%2Ftracker.coppersurfer.tk%3A6969&amp;tr=udp%3A%2F%2Fexodus.desync.com%3A6969",
  "seeders": 112,
  "leechers": 0,
  "uploader": "shawnmurthy",
  "files": -1,
  "time": 1416408382,
  "description": "FOR SCREENSHOTS AND FASTER DOWNLOAD SPEEDS PLEASE VISIT.....MY HOME SITE... SOURCE IS PIMP4003....THE SOURCE IS PIMP4003.....NOT BAD FOR THE FIRST CAM...VIDEO IS PRETTY GOOD NOT BAD FOR A CAM....DID SOME ADJUSTMENTS HERE AND THERE...AUDIO NOT BAD...DID A BIT OF WORK....ENJOY........ENJOY\n\nDumb And Dumber To 2014 720p HDCAM FIRST ENG x264 Pimp4003\n &lt;a href=&quot;\nhttp://www.imdb.com/title/tt2096672/&quot; rel=&quot;nofollow&quot; target=&quot;_NEW&quot;&gt;\nhttp://www.imdb.com/title/tt2096672/&lt;/a&gt;\n\n20 years since their first adventure, Lloyd and Harry go on a road trip to find Harry's newly discovered daughter, who was given up for adoption.\n\nDirectors: Bobby Farrelly, Peter Farrelly\nWriters: Sean Anders (screenplay), Mike Cerrone, 4 more credits Â»\nStars: Jim Carrey, Jeff Daniels, Rob Riggle | See full cast and crew Â»\n\nENJOY\n\nPIMP4003\n\nVideo\nID                                       : 1\nFormat                                   : MPEG-4 Visual\nFormat profile                           : Simple@L3\nFormat settings, BVOP                    : No\nFormat settings, QPel                    : No\nFormat settings, GMC                     : No warppoints\nFormat settings, Matrix                  : Default (H.263)\nCodec ID                                 : 20\nDuration                                 : 1h 42mn\nBit rate                                 : 2 394 Kbps\nWidth                                    : 1 280 pixels\nHeight                                   : 536 pixels\nDisplay aspect ratio                     : 2.40:1\nFrame rate mode                          : Variable\nFrame rate                               : 59.940 fps\nMinimum frame rate                       : 59.916 fps\nMaximum frame rate                       : 60.157 fps\nColor space                              : YUV\nChroma subsampling                       : 4:2:0\nBit depth                                : 8 bits\nScan type                                : Progressive\nCompression mode                         : Lossy\nBits/(Pixel*Frame)                       : 0.058\nStream size                              : 1.71 GiB (95%)\nWriting library                          : ZJMedia MPEG Encoder\n\nAudio\nID                                       : 2\nFormat                                   : AAC\nFormat/Info                              : Advanced Audio Codec\nFormat profile                           : LC\nCodec ID                                 : 40\nDuration                                 : 1h 42mn\nBit rate mode                            : Variable\nBit rate                                 : 128 Kbps\nChannel(s)                               : 2 channels\nChannel positions                        : Front: L R\nSampling rate                            : 48.0 KHz\nCompression mode                         : Lossy\nStream size                              : 93.9 MiB (5%)",
  "parsed": {
    "xt": "urn:btih:c6c2f4514cc74436571144123add56e10c631c30",
    "dn": "Dumb And Dumber To 2014 720p HDCAM FIRST ENG x264 Pimp4003",
    "tr": [
      "udp://exodus.desync.com:6969",
      "udp://open.demonii.com:1337",
      "udp://tracker.coppersurfer.tk:6969",
      "udp://tracker.openbittorrent.com:80"
    ],
    "infoHash": "c6c2f4514cc74436571144123add56e10c631c30",
    "infoHashBuffer": {
      "type": "Buffer",
      "data": [
        198,
        194,
        244,
        81,
        76,
        199,
        68,
        54,
        87,
        17,
        68,
        18,
        58,
        221,
        86,
        225,
        12,
        99,
        28,
        48
      ]
    },
    "name": "Dumb And Dumber To 2014 720p HDCAM FIRST ENG x264 Pimp4003",
    "announce": [
      "udp://exodus.desync.com:6969",
      "udp://open.demonii.com:1337",
      "udp://tracker.coppersurfer.tk:6969",
      "udp://tracker.openbittorrent.com:80"
    ],
    "urlList": []
  },
  "previous": 8,
  "peers": 1,
  "last_updated": "2016-12-27T12:43:03.280Z"
}